<?xml version="1.0" encoding="UTF-8" standalone="no"?>
<svg
   xmlns:dc="http://purl.org/dc/elements/1.1/"
   xmlns:cc="http://creativecommons.org/ns#"
   xmlns:rdf="http://www.w3.org/1999/02/22-rdf-syntax-ns#"
   xmlns:svg="http://www.w3.org/2000/svg"
   xmlns="http://www.w3.org/2000/svg"
   xmlns:sodipodi="http://sodipodi.sourceforge.net/DTD/sodipodi-0.dtd"
   xmlns:inkscape="http://www.inkscape.org/namespaces/inkscape"
   version="1.1"
   id="svg6230"
   viewBox="0 0 356.93983 332.35689"
   height="93.7985mm"
   width="100.73635mm"
   inkscape:version="0.91 r13725"
   sodipodi:docname="druid.svg">
  <sodipodi:namedview
     pagecolor="#ffffff"
     bordercolor="#666666"
     borderopacity="1"
     objecttolerance="10"
     gridtolerance="10"
     guidetolerance="10"
     inkscape:pageopacity="0"
     inkscape:pageshadow="2"
     inkscape:window-width="1276"
     inkscape:window-height="755"
     id="namedview10"
     showgrid="false"
     inkscape:zoom="5.6806405"
     inkscape:cx="250.27333"
     inkscape:cy="253.28171"
     inkscape:window-x="4"
     inkscape:window-y="1"
     inkscape:window-maximized="1"
     inkscape:current-layer="layer2" />
  <defs
     id="defs6232" />
  <metadata
     id="metadata6235">
    <rdf:RDF>
      <cc:Work
         rdf:about="">
        <dc:format>image/svg+xml</dc:format>
        <dc:type
           rdf:resource="http://purl.org/dc/dcmitype/StillImage" />
        <dc:title />
      </cc:Work>
    </rdf:RDF>
  </metadata>
  <g
     transform="translate(-3.045672,-6.909963)"
     style="display:inline"
     id="layer2">
    <path
       style="fill:#000000"
       d="m 157.04852,339.24551 c -1.07415,0.42131 -20.72327,-5.52037 -21.24457,-6.42407 -0.58219,-1.00984 -1.00651,-3.93981 -0.82701,-5.71161 0.0905,-0.88906 15.39163,-52.82697 37.50413,-127.29999 33.6641,-113.377046 37.43837,-125.920966 38.22599,-127.043776 1.45072,-2.06816 3.19135,-3.50688 4.34394,-3.58978 1.95118,-0.13977 19.56118,5.41849 20.18165,6.371 0.72453,1.11247 1.20862,3.97528 1.00751,5.95853 -0.20025,1.97152 -74.45692,252.107196 -75.28687,253.605196 -0.85445,1.54208 -2.94831,3.75895 -3.90473,4.13418 z"
       id="path6429"
       inkscape:connector-curvature="0"
       sodipodi:nodetypes="cccsscccccc" />
    <path
       id="path6427"
       d="m 228.14657,49.695684 -3.21521,-3.50936 -4.70217,0.7367 c -2.58619,0.40521 -4.73928,0.65961 -4.78463,0.56539 -0.0453,-0.0942 1.50107,-1.61182 3.4365,-3.37245 l 3.51895,-3.20111 -0.75306,-4.69714 c -0.41419,-2.58343 -0.67009,-4.73706 -0.56878,-4.78582 0.10141,-0.0487 1.62476,1.49488 3.38538,3.43028 l 3.2011,3.51896 4.69714,-0.75305 c 2.58346,-0.41411 4.73367,-0.67707 4.7782,-0.58463 0.0447,0.0925 -1.50099,1.61536 -3.43461,3.38383 l -3.51568,3.21546 0.74153,4.70629 c 0.40787,2.58847 0.67163,4.73996 0.58604,4.78113 -0.0855,0.0414 -1.60233,-1.50438 -3.3707,-3.43453 z"
       style="fill:#ffffff" />
    <path
       id="path6319"
       d="m 268.89809,25.182224 -3.2152,-3.50936 -4.70218,0.7367 c -2.58621,0.40521 -4.7393,0.6596 -4.78465,0.56538 -0.0454,-0.0942 1.50107,-1.61182 3.43651,-3.37244 l 3.51897,-3.20112 -0.75305,-4.69716 c -0.41421,-2.5834303 -0.67009,-4.7370303 -0.56877,-4.7858103 0.10136,-0.0488 0,0 3.38535,3.4302803 l 3.20112,3.51898 4.69716,-0.75305 c 2.58342,-0.41421 4.73365,-0.67708 4.77818,-0.58463 0.0446,0.0925 -1.50101,1.61534 -3.43463,3.38385 l -3.51566,3.21544 0.74153,4.70631 c 0.40786,2.58846 0.67153,4.73995 0.58602,4.78113 -0.0855,0.0414 -1.60233,-1.50439 -3.37069,-3.43454 z"
       style="fill:#ffffff" />
    <path
       id="path6386"
       d="m 98.614022,299.22679 c -0.70304,-0.13096 -22.49352,-21.45478 -48.4233,-47.38626 -46.88535,-46.88844 -47.14505,-47.16206 -47.14505,-49.67345 0,-2.5114 0.25967,-2.785 47.15165,-49.68006 31.36277,-31.36483 47.69806,-47.27477 48.78346,-47.51316 2.726188,-0.59877 4.951358,0.75168 10.683438,6.48376 5.72415,5.72415 7.1181,8.02314 6.47868,10.68507 -0.23795,0.99058 -15.04882,16.268 -39.414928,40.6565 l -39.03374,39.06961 37.23525,37.18038 c 20.47938,20.44922 38.123798,38.28595 39.209798,39.63718 1.44597,1.79909 1.97457,3.09862 1.97457,4.85432 0,2.21511 -0.49823,2.89063 -6.5483,8.87835 -6.34712,6.28172 -8.05986,7.3464 -10.951528,6.80776 z m 162.489038,-10e-4 c -0.70906,-0.13175 -4.21829,-3.17864 -7.7983,-6.77086 -10.08312,-10.11757 -13.95458,-4.11592 32.84984,-50.92477 l 39.35894,-39.36283 -39.35894,-39.36266 c -46.85969,-46.86412 -42.97721,-40.7902 -32.66496,-51.10246 6.18195,-6.18194 6.87737,-6.69397 9.09151,-6.69397 1.755,0 3.05595,0.52882 4.85432,1.9732 5.2835,4.24352 91.47927,91.20212 92.13532,92.95071 0.37708,1.00504 0.52431,2.56165 0.32719,3.45916 -0.49829,2.26867 -93.77816,95.40158 -95.94322,95.79204 -0.85937,0.15498 -2.14264,0.174 -2.8517,0.0422 z"
       style="display:inline;fill:#ffffff"
       class="test" />
    <path
       style="fill:#ffffff;fill-opacity:1"
       d="m 223.46069,95.505256 4.16204,-14.03416 -4.97374,-1.47071 -4.97362,-1.47097 -4.20902,14.1853 -2.09538,7.061796 4.89616,1.455878 c 2.69353,0.79853 4.95198,1.39407 5.01983,1.32011 0.0676,-0.0752 0,0 2.17221,-7.046704 z"
       id="path3340"
       inkscape:connector-curvature="0"
       sodipodi:nodetypes="cccccccccc" />
  </g>
</svg>
