<svg xmlns:svg="http://www.w3.org/2000/svg" xmlns="http://www.w3.org/2000/svg" width="192.07726mm" height="256.10303mm" viewBox="0 0 680.5887 907.45167" version="1.1"><style>.s0{fill:#f9d3c3;}.s1{fill:#1f1f1f;}.s2{fill:#4c3d2c;}.s3{fill:#000;}.s4{fill:#fff;}.s5{fill:#000;opacity:0.2;}.s6{fill:none;stroke-width:3;stroke:#000;}.s7{fill:none;stroke-miterlimit:5.98000002;stroke-width:3;stroke:#000;}.s8{fill:none;stroke-width:2;stroke:#000;}</style><g transform="translate(-57.70575,-59.214916)"><path d="m484.8531 202.86803-6.36951 0 0.57905-31.26851c-16.32028-9.9588-24.40094-19.16854-32.42661-28.37328-24.76414-3.7836-54.48441-1.92313-76.95891-1.12747-18.00859 18.12699-13.84597 18.62214-20.3209 20.23601-6.79106 64.51487 21.60592 90.21939 67.1694 96.99028 37.39613-3.58478 61.64343-16.78555 68.32748-56.45703zM437.08177 256.14031 437.08177 256.14031 437.08177 256.14031 437.08177 256.14031 437.08177 256.14031 437.08177 256.14031" fill="#f9d3c3"/><path d="m437.08177 256.14031c-3.53652 10.71236-4.52634 21.42472 1.15809 32.13708-10.22982 3.91398-20.45965 14.17274-30.68947-7.5276 3.90382-7.28475 6.2219-14.04093 7.81713-20.55615 6.77362 0.50675 14.17624-1.50252 21.71425-4.05333z" fill="#f9d3c3"/><path d="m488.90643 192.15567c3.80683-0.90811 6.77922-0.4255 4.92189 8.10665-2.47125 6.57767-5.7005 8.35473-8.97522 9.84379-0.18716-5.98348 0.96736-11.96696 4.05333-17.95044z" fill="#f9d3c3"/><path d="m520.67608 401.45426-5 0.375-47.25 29.875 0.5 119.25 5.125 0.125c15.67581-12.89194 31.74786-25.91595 46.5-38.5l1-109.75z" fill="#c6c6c6"/><path d="m521.44365 402.85169-47.37616 30.40559 0.70711 116.31906 45.96194-37.1231z" fill="#ff8d30"/><path d="m550.13245 342.34693c80.7661 131.60935 26.17375 165.34414-31.93692 196.5349-12.09288 6.12715-26.19281 17.43917-29.48024 0.8189l16.37791-14.74012-4.40156-13.20469c4.36735 2.72976 7.33029 6.73973 13.40941 7.47242 75.58384-34.32936 65.95885-89.91995 24.40636-148.20103zM304.15836 299.01739 304.15836 299.01739 304.15836 299.01739 304.15836 299.01739 304.15836 299.01739 304.15836 299.01739" fill="#f9d3c3"/><path d="m304.15836 299.01739c-56.37172 83.4861-4.69849 150.2594 51.07698 188.27403-3.8584 9.41244-0.94934 23.3451 4.13085 30.11193 3.79084-15.20188 4.38053-36.37914 1.60142-53.041-39.26398-16.01283-77.91633-86.77175-43.10815-137.47502z" fill="#f9d3c3"/><path d="m488.90643 190.70806c-3.00856-40.16412-17.26639-55.98309-25.76757-75.56557l-2.89523 2.89523c-10.44845-1.51988-10.04969-11.46316-15.16712-18.348057l-8.28427 9.083307-10.13331-12.159964-6.07999 13.897104-12.73902-12.739011-8.6857 11.580921-9.55427-8.97522-0.86857 11.29141c-27.85156 20.87147-34.2924 35.83654-40.24373 50.66657 11.51688-1.76156 9.49313-11.15396 20.88462-20.10795l77.55329 0.42037c8.02801 12.81766 20.41793 21.27341 32.13708 30.39994l-1.15809 26.92566 2.6057 3.18476 4.63238-0.86857z" fill="#630836"/><path d="m550.31356 340.39664-12.66483 32.14288c-11.88162-12.42594-20.16651-22.01687-40.96024-32.15706l-2.24093 73.20837-25.38576 17.1968-0.81889 117.10205c-48.35889 6.44439-83.58976 11.95009-114.28837-5.4085 19.39022-43.41732-0.51519-149.54728-1.94511-231.92215-9.69479 0.30455-19.64652 3.1406-31.72665 17.88486l-15.31202-31.15961c30.9195-36.1653 68.99807-28.08885 102.67389-17.9923 2.79578 18.1564 15.26954 16.95684 31.11802 9.00785 30.11707 0.0568 79.16989-1.3426 111.55089 52.09681z" fill="#535353"/><path d="m500.58928 548.70858c-1.84323 110.96033-5.40844 221.92066-9.4173 332.88099l-21.29128 1.22834c1.30036-100.17821 3.98649-200.35641-18.0157-300.53462-34.66906 9.28247-46.21646 3.15051-62.23605 0C369.5802 604.40334 359.23 669.62562 371.2038 885.88877l-23.74797-0.61417c-5.39692-114.45021-11.06168-228.91259 6.96061-342.29829 38.21512 17.7635 76.43024 9.92674 114.64536 4.50392l0.8189 3.27558 4.50392 0 14.74012-10.64564c-0.28926 5.94922 3.02504 9.19576 11.46454 8.59841z" fill="#c0945f"/><path d="m487.85608 882.80041-0.70711 13.25826-15.02602 0.35355 0.53033-12.9047zM367.55108 885.82926l0 10.25-17.5 1.25 0.75-11.5M367.55108 885.82926l0 10.25-17.5 1.25 0.75-11.5M367.55108 885.82926l0 10.25-17.5 1.25 0.75-11.5M367.55108 885.82926l0 10.25-17.5 1.25 0.75-11.5M367.55108 885.82926l0 10.25-17.5 1.25 0.75-11.5M367.55108 885.82926l0 10.25-17.5 1.25 0.75-11.5" fill="#1f1f1f"/><path d="m367.55108 885.82926 0 10.25-17.5 1.25 0.75-11.5z" fill="#1f1f1f"/><path d="m489.55108 896.57926 1.75 20.75c-20.00032 16.995-49.6921 48.61965-56 21.25 7.58861-11.99472 19.37935-19.78732 29.5-29.25l4.75-13zM369.59247 896.05867l0.88388 27.22361M369.59247 896.05867l0.88388 27.22361M369.59247 896.05867l0.88388 27.22361M369.59247 896.05867l0.88388 27.22361M369.59247 896.05867l0.88388 27.22361M369.59247 896.05867l0.88388 27.22361" fill="#4c3d2c"/><path d="m369.59247 896.05867 0.88388 27.22361c-22.3415 4.53562-62.10374 32.19878-60.10408 4.41941 9.32388-7.46236 23.63931-10.76509 35.53212-16.08667l1.94454-13.61181z" fill="#4c3d2c"/><g transform="matrix(0.33026096,0.04431599,-0.04431599,0.33026096,367.78693,291.90556)"><path d="m163.50107 304.96171c-0.85215 0.3411-16.5164-4.27645-16.93609-4.99248-0.46874-0.80014-0.8226-3.12861-0.68963-4.53911 0.0665-0.70783 11.95095-42.1103 29.12822-101.47775 26.15071-90.38048 29.08356-100.380365 29.70386-101.277956 1.14261-1.653315 2.5193-2.807513 3.43577-2.879861 1.55142-0.122025 15.5914 4.201866 16.09024 4.956159 0.58259 0.880968 0.9836 3.155696 0.83463 4.734528-0.1479 1.56953-57.83171 200.9694-58.48359 202.1657-0.67121 1.23151-2.32459 3.00668-3.08336 3.3105z" fill="#000"/><path d="m218.45276 74.224649-2.57726-2.773908-3.73655 0.612177c-2.05512 0.336716-3.76652 0.551056-3.8031 0.476355-0.0363-0.07471 1.18517-1.290571 2.71505-2.701934l2.78161-2.566087-0.62514-3.732475c-0.34385-2.052864-0.55937-3.7647-0.47906-3.804047 0.0804-0.03927 1.30081 1.180178 2.71217 2.710043l2.56605 2.78162 3.7325-0.625152c2.05286-0.343784 3.76198-0.564911 3.79785-0.491622 0.0364 0.07333-1.18504 1.293386-2.71341 2.710973l-2.77895 2.577487 0.61601 3.739819c0.33883 2.056909 0.56064 3.766994 0.49275 3.800219-0.067 0.03346-1.28302-1.187859-2.70053-2.713507zM250.73519 54.497414l-2.57726-2.773905-3.73653 0.612179M250.73519 54.497414l-2.57726-2.773905-3.73653 0.612179M250.73519 54.497414l-2.57726-2.773905-3.73653 0.612179M250.73519 54.497414l-2.57726-2.773905-3.73653 0.612179M250.73519 54.497414l-2.57726-2.773905-3.73653 0.612179M250.73519 54.497414l-2.57726-2.773905-3.73653 0.612179" fill="#fff"/><path d="m250.73519 54.497414-2.57726-2.773905-3.73653 0.612179c-2.05517 0.33671-3.76654 0.551041-3.80315 0.476338-0.0364-0.07469 1.1852-1.290568 2.71507-2.701922l2.78164-2.566091-0.62518-3.732497c-0.34384-2.052863-0.55936-3.76467-0.47903-3.804044 0.0804-0.03935 0 0 2.71214 2.710053l2.5661 2.781633 3.73252-0.62515c2.05282-0.343859 3.76193-0.564922 3.7979-0.491622 0.0361 0.07336-1.18513 1.293365-2.71354 2.710989l-2.77891 2.577468 0.61605 3.739839c0.33884 2.056899 0.56053 3.766989 0.49274 3.800222-0.067 0.03347-1.28305-1.187873-2.70055-2.713523z" fill="#fff"/><path class="test" d="m116.79314 273.45059c-0.56-0.10076-18.013156-16.94273-38.784813-37.42768C40.44976 198.9827 40.241646 198.76645 40.227697 196.7686c-0.01396-1.99783 0.191096-2.21697 37.234087-39.78327 24.775476-25.12549 37.682086-37.87283 38.544256-38.06853 2.16539-0.49149 3.94304 0.57047 8.5349 5.09862 4.58543 4.5219 5.70713 6.34301 5.21323 8.46421-0.1838 0.78932-11.88124 13.02508-31.129497 32.56187l-30.835073 31.29738 29.827835 29.3709c16.405325 16.15399 30.540795 30.24543 31.412255 31.3143 1.16027 1.4232 1.58799 2.45405 1.59776 3.85075 0.0125 1.76219-0.38031 2.30232-5.15997 7.09926-5.01441 5.03249-6.37101 5.88894-8.67434 5.4765zm129.26297-0.90322c-0.56478-0.10127-3.37335-2.50523-6.2413-5.34301-8.07747-7.99274-11.12397-3.19681 25.84984-40.69404l31.09211-31.53244-31.52934-31.09512c-37.53802-37.02102-34.41571-32.21068-26.2694-40.47157 4.88352-4.95215 5.4339-5.36335 7.19531-5.37564 1.39609-0.009 2.43397 0.40372 3.87263 1.54277 4.2267 3.34645 73.27999 72.04486 73.81156 73.43229 0.30557 0.79743 0.43135 2.03493 0.27949 2.75001-0.38379 1.80749-74.07235 76.41451-75.79254 76.73714-0.68281 0.12808-1.70355 0.15037-2.26835 0.0495z" fill="#fff"/><path d="m214.97951 110.69303 3.23301-11.187554-3.9649-1.142351-3.96475-1.142561-3.26956 11.308036-1.62768 5.62942 3.90307 1.13095c2.14716 0.62035 3.94714 1.08153 4.0007 1.02234 0.0529-0.0595 0 0 1.68886-5.61783z" fill="#fff"/></g><path d="m500.58442 554.39716c-5.62317 1.91746-11.24635 2.74015-16.86952-4.21738l-10.12172 8.99708-8.81012-3.24854c-1.28657 0.22425 4.44659-5.31014 3.19906-5.10297-75.00598 12.45597-87.20177 0.16349-114.59951-4.1463l0.99927-4.09055c33.33694 15.54541 73.13474 11.70826 113.86929 5.06085l0.84347 3.93623 4.49854-1.12464 14.05794-9.5594c2.43671 5.99805 6.74781 8.6222 12.9333 7.87245zM437.32371 256.65007l-22.77386 3.37391-1.12464 12.08982M437.32371 256.65007l-22.77386 3.37391-1.12464 12.08982M437.32371 256.65007l-22.77386 3.37391-1.12464 12.08982M437.32371 256.65007l-22.77386 3.37391-1.12464 12.08982M437.32371 256.65007l-22.77386 3.37391-1.12464 12.08982M437.32371 256.65007l-22.77386 3.37391-1.12464 12.08982" class="s5"/><path d="m437.32371 256.65007-22.77386 3.37391-1.12464 12.08982c9.3793 8.09249 16.02523 1.92857 22.4927 0.00001z" class="s5"/><path d="m486.4539 896.86044-0.5823 16.55526c-4.02018 3.78088-37.90673 38.66179-50.56577 24.74882 4.07306 4.70799-6.72728 31.49482 56.31711-21.02554l-1.98809-20.67616z" class="s5"/><path d="m494.38046 413.65372c0.77-25.77304 1.99548-62.33744 2.2109-72.94165 2.2846 0.17055-11.56738-3.65975-11.56738-3.65975 0.63261 34.55688-1.21632 65.22053 3.09266 81.6944 0.87788 3.35626 5.12645-8.7331 6.26382-5.093z" class="s5"/><rect width="13.788582" height="11.313708" x="-497.57877" y="456.41504" transform="scale(-1,1)" style="fill:#ff8d30;opacity:0.2"/><path d="m493.15938 453.05627-9.8995 6.36396 0.35356 22.98097 10.25304-7.77818z" style="fill:#a30000;stroke:#000"/><path d="m515.43324 420.35258-16.08668 11.66726 0.17678 29.16815 15.73312-12.02081z" style="fill:#515eff;stroke:#fff"/><path d="m489.44706 525.00438-9.01561-7.60139 0.53034-20.5061 9.72271-7.42462 3.71231 21.74353c-1.65786 5.41272 1.18606-3.5689-4.94975 13.78858z" style="fill:#76dc2d;stroke-linejoin:bevel;stroke-width:2;stroke:#fff"/><path d="m497.21391 439.89158 21.33176 36.23013-5.75619 9.14218-24.71775-33.85993z" style="fill:#fff60f;stroke-width:1.3543973;stroke:#000"/><path d="m517.92608 507.95426 0-20-8.25 6.375 0 20.375z" style="fill:#3bc4c9;stroke:#000"/><path d="m390.6289 581.04259-4.24265-2.47487c-34.79416 24.40126-25.38495 178.99059-21.2132 306.88434l7.07107-0.7071C362.84832 769.59087 362.08533 602.16329 390.6289 581.04259Z" class="s5"/></g><g transform="translate(-57.70575,-59.214916)"><image y="59.214916" x="-738.29443" preserveAspectRatio="none" height="907.45166" width="680.58868" transform="scale(-1,1)" opacity="0"/><ellipse cx="-430.77222" cy="194.19864" rx="4.9076719" ry="11.65572" transform="scale(-1,1)" fill="#000"/><ellipse cx="-380.4696" cy="195.12289" rx="4.9665909" ry="11.795652" transform="scale(-1,1)" fill="#000"/><path d="m485.44241 202.50304c-2.32204 0.32243-5.12465 3.14159-7.38778-1.19436 1.71986-8.1387 3.11075-16.67218 1.51522-28.78935-20.02058-11.85345-27.62118-21.04245-33.08249-29.54696-31.76089-4.15446-59.61272-2.27405-77.41557-1.11116-15.99563 23.32234-19.50729 20.97012-19.50729 20.97012 0 0-0.65734 3.04281-1.03987 8.12337-0.75711 10.0555-1.04203 26.68697 1.7457 36.16236 3.89608 13.24264 11.31099 26.33266 21.97081 35.10279 12.73674 10.47886 29.72785 18.14844 46.21449 17.67768 18.26646-0.52158 36.88686-9.75133 50.00255-22.47589 9.2898-9.01276 15.87135-21.46844 16.98423-34.9186zM422.74877 230.35057" style="fill:none;stroke-miterlimit:4.30000019;stroke-width:3;stroke:#000"/><path d="m422.74877 230.35057c-10.35406 5.751-23.99113 3.64068-34.34519 0" class="s6"/><path d="m485.31766 202.68227c0 0 0.86861-4.10141 1.61223-6.05226 0.51308-1.34605 1.94949-3.85685 1.94949-3.85685 0.66202-17.69349-4.00146-42.79837-18.14836-61.165-3.64048-5.04812-6.2913-11.36865-7.57614-19.44544-1.50454 6.61664-4.75881 8.85899-7.1503 13.25825l5.50879-8.9651c-10.46122 2.21984-12.33673-3.2103-16.19999-17.449291-3.12155 5.541571-5.15682 6.780621-8.42247 9.368071-6.23877-3.64687-7.83368-8.982418-10.6066-13.889597-0.19636 5.543397-1.82416 10.450587-5.05076 14.647207-5.33271-3.54725-10.51825-7.17627-12.87945-12.374364-1.41813 2.34794-4.61029 10.701474-9.51505 12.637424-2.15597 0.85098-9.00254-8.36974-9.00254-8.36974 0 0 0.51514 9.65337-1.84627 11.62372-12.50201 10.43159-19.72568 16.20783-27.53653 27.84338-3.57762 5.32946-9.57029 15.36688-10.71111 21.4851" style="fill:none;stroke-miterlimit:8.39999962;stroke-width:3;stroke:#000"/><path d="m381.61236 136.47553c1.52112-4.92543 2.62156-16.109 0.6605-22.03109 4.73588 4.67097 9.56986 8.11953 13.5063 9.50546M446.11051 131.85162 446.11051 131.85162 446.11051 131.85162 446.11051 131.85162 446.11051 131.85162" class="s7"/><path d="m446.11051 131.85162c-6.57207-4.40303-8.48241-9.52743-11.25001-15.35714-0.73066 7.56992-5.8946 11.66144-8.03571 15" class="s7"/><path d="m420.5742 132.26606c-5.7796-5.28325-7.81074-9.51718-10.92815-19.17521-0.632 7.76903-5.73549 15.3952-9.07311 19.97311" class="s7"/><path d="m488.87994 192.89805c12.86316-5.80821 3.14705 18.25096-4.5317 17.85209" class="s6"/><path d="m493.65412 415.40306 3.5301-75.28324-6.65746-1.98801c17.72094 2.56816 41.25904 26.37875 47.6162 34.92783 4.04019-9.93799 3.48284-13.91841 12.23374-30.79519-12.16364-19.38932-29.33288-39.981-49.9421-46.65182-31.53779-7.4672-61.35556-7.23495-61.35556-7.23495-14.8893 10.00696-25.81938 8.13622-32.22427-7.31009 0 0-29.31673-9.32249-41.79399-10.94844-27.67874-3.6069-50.80774 16.53781-60.18416 28.878l14.16699 28.6219c12.43582-12.94095 22.30659-18.04029 33.31312-16.6883l9.11596 154.21167c1.21628 32.58441 0.91048 56.43692-7.46259 77.68735 39.62953 18.35139 71.25412 11.53659 112.29614 5.87562" style="fill:none;stroke-linejoin:round;stroke-width:3;stroke:#000"/><path d="m437.46469 256.94927c-3.57233 11.10137-2.79004 20.46561 0.78481 31.56698M414.61432 258.97227 414.61432 258.97227 414.61432 258.97227 414.61432 258.97227 414.61432 258.97227 414.61432 258.97227" class="s6"/><path d="m414.61432 258.97227c0.91297 10.6858-2.90002 17.59082-9.13177 22.56085" class="s6"/><path d="m537.86034 372.71026c61.08431 83.71495 22.69547 127.31135-23.31548 147.88758-2.96026 1.32384-12.53555-10.66709-13.85432-9.16203-2.00385 2.28692 5.00568 11.23613 6.50322 12.94406 1.49755 1.70792-12.02032 9.89191-12.02032 9.89191l-7.2168 6.45714c6.73922 13.30248 17.36225 8.00358 28.86721-1.51932 118.89782-55.46046 67.97543-138.8748 33.51303-197.02816" class="s6"/><path d="m320.21022 326.3402c-45.2104 46.96207 6.42225 126.4658 41.6423 140.32154" class="s6"/><path d="m305.08006 298.75053c-73.92941 95.1234 25.00715 171.61804 49.93549 190.32128-5.20587 12.92721 0.20991 25.10005 4.56992 29.46203" class="s6"/><path d="m521.50978 402.39483-0.53716 110.11844-9.13466 7.475-11.72327-8.49781 7.37544 13.49668-33.2507 26.20187-0.53716-117.63872z" style="fill:none;stroke-linejoin:bevel;stroke-width:2;stroke:#000"/><path d="m521.50978 401.3205-5.6156 0.14476-47.56354 29.93638 1.07432 119.78737 4.83447 0" class="s6"/><ellipse cx="-500.81076" cy="489.81091" rx="3.8194559" ry="16.914734" transform="scale(-1,1)" style="fill:#fff;stroke-width:2;stroke:#000"/><path d="m500.26512 548.19402c0.66226 116.80149-9.27582 333.92958-9.27582 333.92958l-21.82546 1.63691c0 0 10.6186-189.15864-16.3691-300.64575-37.81189 6.29321-51.71563 3.06409-63.29384-1.09127-37.1897 37.65289-18.55164 304.4652-18.55164 304.4652l-24.00801-0.54564c0 0-14.54075-232.0152 7.09327-343.2054" class="s6"/><path d="m443.09837 169.16052c-8.6218-2.71364-13.97405-2.78566-18.03569-0.42942" style="fill:none;stroke-width:2.42917347;stroke:#000"/><path d="m386.24366 167.64072c-8.36557-1.44201-13.93592-0.59299-18.18443 1.63049" style="fill:none;stroke-width:2.45833707;stroke:#000"/><path d="m369.85965 896.72988-21.97493 1.34541-1.34541 13.45403c-33.77453 13.82379-37.66358 11.35547-35.83431 23.32035 2.22806 14.57324 34.72078-2.99261 59.65057-11.25915zM490.01782 896.1179l-20.64503 0.14447-4.43201 13.09549" class="s6"/><path d="m490.01782 896.1179-20.64503 0.14447-4.43201 13.09549c-25.66783 26.44947-34.21292 25.30767-27.21193 35.20858 8.52721 12.05931 33.76844-9.2607 53.56938-27.05685z" class="s6"/><path d="m487.70159 895.3845 0.35355-13.08148M472.14524 896.62194l0.35355-13.08148" class="s8"/><path d="m472.14524 896.62194 0.35355-13.08148" class="s8"/><path d="m367.31457 896.79005 0.35771-11.11961" style="fill:none;stroke-width:1.85477698;stroke:#000"/><path d="m350.34517 897.8553 0.35539-12.18944" style="fill:none;stroke-width:1.9356426;stroke:#000"/></g><path d="m313.01722 837.19991 0.70711 27.04683c-26.54066 8.08225-66.75111 32.11483-58.51309 2.65165-3.83556 14.40229 26.71102 5.37491 53.56334-7.77817l1.06066-21.56676z" class="s5"/></svg>