<?xml version="1.0" encoding="UTF-8" standalone="no"?>
<!-- Created with Inkscape (http://www.inkscape.org/) -->

<svg
   xmlns:dc="http://purl.org/dc/elements/1.1/"
   xmlns:cc="http://creativecommons.org/ns#"
   xmlns:rdf="http://www.w3.org/1999/02/22-rdf-syntax-ns#"
   xmlns:svg="http://www.w3.org/2000/svg"
   xmlns="http://www.w3.org/2000/svg"
   xmlns:sodipodi="http://sodipodi.sourceforge.net/DTD/sodipodi-0.dtd"
   xmlns:inkscape="http://www.inkscape.org/namespaces/inkscape"
   width="192.07726mm"
   height="256.10303mm"
   viewBox="0 0 680.5887 907.45167"
   id="svg2"
   version="1.1"
   inkscape:version="0.91 r13725"
   sodipodi:docname="Jono-2.svg"
   inkscape:export-filename="/Users/foo/druid/Jono1.png"
   inkscape:export-xdpi="203"
   inkscape:export-ydpi="203">
  <defs
     id="defs4">
    <marker
       inkscape:stockid="Arrow1Lend"
       orient="auto"
       refY="0.0"
       refX="0.0"
       id="Arrow1Lend"
       style="overflow:visible;"
       inkscape:isstock="true">
      <path
         id="path4498"
         d="M 0.0,0.0 L 5.0,-5.0 L -12.5,0.0 L 5.0,5.0 L 0.0,0.0 z "
         style="fill-rule:evenodd;stroke:#00ff00;stroke-width:1pt;stroke-opacity:0.47916667;fill:#00ff00;fill-opacity:0.1875"
         transform="scale(0.8) rotate(180) translate(12.5,0)" />
    </marker>
  </defs>
  <sodipodi:namedview
     id="base"
     pagecolor="#ffffff"
     bordercolor="#666666"
     borderopacity="1.0"
     inkscape:pageopacity="0.0"
     inkscape:pageshadow="2"
     inkscape:zoom="1.5153725"
     inkscape:cx="601.97802"
     inkscape:cy="531.74306"
     inkscape:document-units="px"
     inkscape:current-layer="layer2"
     showgrid="false"
     inkscape:window-width="1276"
     inkscape:window-height="755"
     inkscape:window-x="4"
     inkscape:window-y="1"
     inkscape:window-maximized="1"
     fit-margin-top="0"
     fit-margin-left="0"
     fit-margin-right="0"
     fit-margin-bottom="0" />
  <metadata
     id="metadata7">
    <rdf:RDF>
      <cc:Work
         rdf:about="">
        <dc:format>image/svg+xml</dc:format>
        <dc:type
           rdf:resource="http://purl.org/dc/dcmitype/StillImage" />
        <dc:title></dc:title>
      </cc:Work>
    </rdf:RDF>
  </metadata>
  <g
     inkscape:groupmode="layer"
     id="layer2"
     inkscape:label="Colour"
     style="display:inline"
     transform="translate(-57.70575,-59.214916)">
    <path
       style="fill:#f5eac9;fill-rule:evenodd;stroke:none;stroke-width:1px;stroke-linecap:butt;stroke-linejoin:miter;stroke-opacity:1;fill-opacity:1"
       d="m 204.96074,285.36921 17.67767,0 -4.94975,13.08147 -9.54594,0.35356 z"
       id="path4471"
       inkscape:connector-curvature="0" />
    <path
       style="fill:#f9d3c3;fill-opacity:1;fill-rule:evenodd;stroke:none;stroke-width:1px;stroke-linecap:butt;stroke-linejoin:miter;stroke-opacity:1"
       d="m 484.8531,202.86803 -6.36951,0 0.57905,-31.26851 c -16.32028,-9.9588 -24.40094,-19.16854 -32.42661,-28.37328 -24.76414,-3.7836 -54.48441,-1.92313 -76.95891,-1.12747 -18.00859,18.12699 -13.84597,18.62214 -20.3209,20.23601 -6.79106,64.51487 21.60592,90.21939 67.1694,96.99028 37.39613,-3.58478 61.64343,-16.78555 68.32748,-56.45703 z"
       id="path4662"
       inkscape:connector-curvature="0"
       sodipodi:nodetypes="cccccccc" />
    <path
       style="fill:#f9d3c3;fill-opacity:1;fill-rule:evenodd;stroke:none;stroke-width:1px;stroke-linecap:butt;stroke-linejoin:miter;stroke-opacity:1"
       d="m 437.08177,256.14031 c -3.53652,10.71236 -4.52634,21.42472 1.15809,32.13708 -10.22982,3.91398 -20.45965,14.17274 -30.68947,-7.5276 3.90382,-7.28475 6.2219,-14.04093 7.81713,-20.55615 6.77362,0.50675 14.17624,-1.50252 21.71425,-4.05333 z"
       id="path4664"
       inkscape:connector-curvature="0"
       sodipodi:nodetypes="ccccc" />
    <path
       style="fill:#f9d3c3;fill-opacity:1;fill-rule:evenodd;stroke:none;stroke-width:1px;stroke-linecap:butt;stroke-linejoin:miter;stroke-opacity:1"
       d="m 488.90643,192.15567 c 3.80683,-0.90811 6.77922,-0.4255 4.92189,8.10665 -2.47125,6.57767 -5.7005,8.35473 -8.97522,9.84379 -0.18716,-5.98348 0.96736,-11.96696 4.05333,-17.95044 z"
       id="path4666"
       inkscape:connector-curvature="0"
       sodipodi:nodetypes="cccc" />
    <path
       style="fill:#c6c6c6;fill-opacity:1;fill-rule:evenodd;stroke:none;stroke-width:1px;stroke-linecap:butt;stroke-linejoin:miter;stroke-opacity:1"
       d="m 520.67608,401.45426 -5,0.375 -47.25,29.875 0.5,119.25 5.125,0.125 c 15.67581,-12.89194 31.74786,-25.91595 46.5,-38.5 l 1,-109.75 z"
       id="path4745"
       inkscape:connector-curvature="0"
       sodipodi:nodetypes="cccccccc" />
    <path
       style="fill:#ff8d30;fill-opacity:1;fill-rule:evenodd;stroke:none;stroke-width:1px;stroke-linecap:butt;stroke-linejoin:miter;stroke-opacity:1"
       d="m 521.44365,402.85169 -47.37616,30.40559 0.70711,116.31906 45.96194,-37.1231 z"
       id="path4860"
       inkscape:connector-curvature="0" />
    <path
       style="fill:#f9d3c3;fill-opacity:1;fill-rule:evenodd;stroke:none;stroke-width:1px;stroke-linecap:butt;stroke-linejoin:miter;stroke-opacity:1"
       d="m 550.13245,342.34693 c 80.7661,131.60935 26.17375,165.34414 -31.93692,196.5349 -12.09288,6.12715 -26.19281,17.43917 -29.48024,0.8189 l 16.37791,-14.74012 -4.40156,-13.20469 c 4.36735,2.72976 7.33029,6.73973 13.40941,7.47242 75.58384,-34.32936 65.95885,-89.91995 24.40636,-148.20103 z"
       id="path4668"
       inkscape:connector-curvature="0"
       sodipodi:nodetypes="cccccccc" />
    <path
       style="fill:#f9d3c3;fill-opacity:1;fill-rule:evenodd;stroke:none;stroke-width:1px;stroke-linecap:butt;stroke-linejoin:miter;stroke-opacity:1"
       d="m 326.97727,327.51093 c -5.12131,122.90538 -37.66936,93.51033 -118.13639,41.98001 -1.96642,-1.25927 -7.06575,-15.24589 -13.00432,-20.12057 0,0 -2.88437,-0.36385 -2.51322,0.92613 4.15438,14.43932 5.13497,17.7423 -3.36277,14.39262 -6.56086,-2.58619 -14.98749,-14.55281 -16.91924,-12.64031 -0.47864,0.47387 -2.81161,-2.04805 -2.52236,-0.68831 0.35629,1.67491 -6.36449,-12.69079 -10.41672,-10.06538 -7.00832,4.54063 4.79951,18.71307 8.52515,23.5569 6.86602,8.92671 29.75688,13.67228 31.09931,13.70218 24.84513,21.37992 149.94627,122.76292 152.68174,-33.19783 z"
       id="path4670"
       inkscape:connector-curvature="0"
       sodipodi:nodetypes="cssssssasccc" />
    <path
       style="fill:#630836;fill-opacity:1;fill-rule:evenodd;stroke:none;stroke-width:1px;stroke-linecap:butt;stroke-linejoin:miter;stroke-opacity:1"
       d="m 488.90643,190.70806 c -3.00856,-40.16412 -17.26639,-55.98309 -25.76757,-75.56557 l -2.89523,2.89523 c -10.44845,-1.51988 -10.04969,-11.46316 -15.16712,-18.348057 l -8.28427,9.083307 -10.13331,-12.159964 -6.07999,13.897104 -12.73902,-12.739011 -8.6857,11.580921 -9.55427,-8.97522 -0.86857,11.29141 c -27.85156,20.87147 -34.2924,35.83654 -40.24373,50.66657 11.51688,-1.76156 9.49313,-11.15396 20.88462,-20.10795 l 77.55329,0.42037 c 8.02801,12.81766 20.41793,21.27341 32.13708,30.39994 l -1.15809,26.92566 2.6057,3.18476 4.63238,-0.86857 z"
       id="path4672"
       inkscape:connector-curvature="0"
       sodipodi:nodetypes="ccccccccccccccccccc" />
    <path
       style="fill:#535353;fill-opacity:1;fill-rule:evenodd;stroke:none;stroke-width:1px;stroke-linecap:butt;stroke-linejoin:miter;stroke-opacity:1"
       d="m 550.31356,340.39664 -12.66483,32.14288 c -11.88162,-12.42594 -20.16651,-22.01687 -40.96024,-32.15706 l -2.24093,73.20837 -25.38576,17.1968 -0.81889,117.10205 c -48.35889,6.44439 -83.58976,11.95009 -114.28837,-5.4085 19.39022,-43.41732 1.01514,-116.18611 -0.41478,-198.56098 -12.30952,-6.90054 -18.28395,-12.8648 -26.11925,-18.95394 15.30479,-64.03839 35.19822,-48.1109 80.22414,-45.67428 2.79578,18.1564 15.26954,16.95684 31.11802,9.00785 30.11707,0.0568 79.16989,-1.3426 111.55089,52.09681 z"
       id="path4674"
       inkscape:connector-curvature="0"
       sodipodi:nodetypes="cccccccccccc" />
    <path
       style="fill:#c0945f;fill-opacity:1;fill-rule:evenodd;stroke:none;stroke-width:1px;stroke-linecap:butt;stroke-linejoin:miter;stroke-opacity:1"
       d="m 500.58928,548.70858 c -1.84323,110.96033 -5.40844,221.92066 -9.4173,332.88099 l -21.29128,1.22834 c 1.30036,-100.17821 3.98649,-200.35641 -18.0157,-300.53462 -34.66906,9.28247 -46.21646,3.15051 -62.23605,0 C 369.5802,604.40334 359.23,669.62562 371.2038,885.88877 l -23.74797,-0.61417 c -5.39692,-114.45021 -11.06168,-228.91259 6.96061,-342.29829 38.21512,17.7635 76.43024,9.92674 114.64536,4.50392 l 0.8189,3.27558 4.50392,0 14.74012,-10.64564 c -0.28926,5.94922 3.02504,9.19576 11.46454,8.59841 z"
       id="path4680"
       inkscape:connector-curvature="0"
       sodipodi:nodetypes="ccccccccccccc" />
    <path
       style="fill:#1f1f1f;fill-opacity:1;fill-rule:evenodd;stroke:none;stroke-width:1px;stroke-linecap:butt;stroke-linejoin:miter;stroke-opacity:1"
       d="m 487.85608,882.80041 -0.70711,13.25826 -15.02602,0.35355 0.53033,-12.9047 z"
       id="path4736"
       inkscape:connector-curvature="0" />
    <path
       style="fill:#1f1f1f;fill-opacity:1;fill-rule:evenodd;stroke:none;stroke-width:1px;stroke-linecap:butt;stroke-linejoin:miter;stroke-opacity:1"
       d="m 367.55108,885.82926 0,10.25 -17.5,1.25 0.75,-11.5 z"
       id="path4739"
       inkscape:connector-curvature="0" />
    <path
       style="fill:#4c3d2c;fill-opacity:1;fill-rule:evenodd;stroke:none;stroke-width:1px;stroke-linecap:butt;stroke-linejoin:miter;stroke-opacity:1"
       d="m 489.55108,896.57926 1.75,20.75 c -20.00032,16.995 -49.6921,48.61965 -56,21.25 7.58861,-11.99472 19.37935,-19.78732 29.5,-29.25 l 4.75,-13 z"
       id="path4741"
       inkscape:connector-curvature="0"
       sodipodi:nodetypes="cccccc" />
    <path
       style="fill:#4c3d2c;fill-opacity:1;fill-rule:evenodd;stroke:none;stroke-width:1px;stroke-linecap:butt;stroke-linejoin:miter;stroke-opacity:1"
       d="m 369.59247,896.05867 0.88388,27.22361 c -22.3415,4.53562 -62.10374,32.19878 -60.10408,4.41941 9.32388,-7.46236 23.63931,-10.76509 35.53212,-16.08667 l 1.94454,-13.61181 z"
       id="path4743"
       inkscape:connector-curvature="0"
       sodipodi:nodetypes="cccccc" />
    <g
       id="layer2-0"
       style="display:inline"
       transform="matrix(0.33026096,0.04431599,-0.04431599,0.33026096,367.78693,291.90556)">
      <path
         sodipodi:nodetypes="cccsscccccc"
         inkscape:connector-curvature="0"
         id="path6429"
         d="m 163.50107,304.96171 c -0.85215,0.3411 -16.5164,-4.27645 -16.93609,-4.99248 -0.46874,-0.80014 -0.8226,-3.12861 -0.68963,-4.53911 0.0665,-0.70783 11.95095,-42.1103 29.12822,-101.47775 26.15071,-90.38048 29.08356,-100.380365 29.70386,-101.277956 1.14261,-1.653315 2.5193,-2.807513 3.43577,-2.879861 1.55142,-0.122025 15.5914,4.201866 16.09024,4.956159 0.58259,0.880968 0.9836,3.155696 0.83463,4.734528 -0.1479,1.56953 -57.83171,200.9694 -58.48359,202.1657 -0.67121,1.23151 -2.32459,3.00668 -3.08336,3.3105 z"
         style="fill:#000000" />
      <path
         style="fill:#ffffff"
         d="m 218.45276,74.224649 -2.57726,-2.773908 -3.73655,0.612177 c -2.05512,0.336716 -3.76652,0.551056 -3.8031,0.476355 -0.0363,-0.07471 1.18517,-1.290571 2.71505,-2.701934 l 2.78161,-2.566087 -0.62514,-3.732475 c -0.34385,-2.052864 -0.55937,-3.7647 -0.47906,-3.804047 0.0804,-0.03927 1.30081,1.180178 2.71217,2.710043 l 2.56605,2.78162 3.7325,-0.625152 c 2.05286,-0.343784 3.76198,-0.564911 3.79785,-0.491622 0.0364,0.07333 -1.18504,1.293386 -2.71341,2.710973 l -2.77895,2.577487 0.61601,3.739819 c 0.33883,2.056909 0.56064,3.766994 0.49275,3.800219 -0.067,0.03346 -1.28302,-1.187859 -2.70053,-2.713507 z"
         id="path6427"
         inkscape:connector-curvature="0" />
      <path
         style="fill:#ffffff"
         d="m 250.73519,54.497414 -2.57726,-2.773905 -3.73653,0.612179 c -2.05517,0.33671 -3.76654,0.551041 -3.80315,0.476338 -0.0364,-0.07469 1.1852,-1.290568 2.71507,-2.701922 l 2.78164,-2.566091 -0.62518,-3.732497 c -0.34384,-2.052863 -0.55936,-3.76467 -0.47903,-3.804044 0.0804,-0.03935 0,0 2.71214,2.710053 l 2.5661,2.781633 3.73252,-0.62515 c 2.05282,-0.343859 3.76193,-0.564922 3.7979,-0.491622 0.0361,0.07336 -1.18513,1.293365 -2.71354,2.710989 l -2.77891,2.577468 0.61605,3.739839 c 0.33884,2.056899 0.56053,3.766989 0.49274,3.800222 -0.067,0.03347 -1.28305,-1.187873 -2.70055,-2.713523 z"
         id="path6319"
         inkscape:connector-curvature="0" />
      <path
         class="test"
         style="display:inline;fill:#ffffff"
         d="m 116.79314,273.45059 c -0.56,-0.10076 -18.013156,-16.94273 -38.784813,-37.42768 C 40.44976,198.9827 40.241646,198.76645 40.227697,196.7686 c -0.01396,-1.99783 0.191096,-2.21697 37.234087,-39.78327 24.775476,-25.12549 37.682086,-37.87283 38.544256,-38.06853 2.16539,-0.49149 3.94304,0.57047 8.5349,5.09862 4.58543,4.5219 5.70713,6.34301 5.21323,8.46421 -0.1838,0.78932 -11.88124,13.02508 -31.129497,32.56187 l -30.835073,31.29738 29.827835,29.3709 c 16.405325,16.15399 30.540795,30.24543 31.412255,31.3143 1.16027,1.4232 1.58799,2.45405 1.59776,3.85075 0.0125,1.76219 -0.38031,2.30232 -5.15997,7.09926 -5.01441,5.03249 -6.37101,5.88894 -8.67434,5.4765 z m 129.26297,-0.90322 c -0.56478,-0.10127 -3.37335,-2.50523 -6.2413,-5.34301 -8.07747,-7.99274 -11.12397,-3.19681 25.84984,-40.69404 l 31.09211,-31.53244 -31.52934,-31.09512 c -37.53802,-37.02102 -34.41571,-32.21068 -26.2694,-40.47157 4.88352,-4.95215 5.4339,-5.36335 7.19531,-5.37564 1.39609,-0.009 2.43397,0.40372 3.87263,1.54277 4.2267,3.34645 73.27999,72.04486 73.81156,73.43229 0.30557,0.79743 0.43135,2.03493 0.27949,2.75001 -0.38379,1.80749 -74.07235,76.41451 -75.79254,76.73714 -0.68281,0.12808 -1.70355,0.15037 -2.26835,0.0495 z"
         id="path6386"
         inkscape:connector-curvature="0" />
      <path
         sodipodi:nodetypes="cccccccccc"
         inkscape:connector-curvature="0"
         id="path3340"
         d="m 214.97951,110.69303 3.23301,-11.187554 -3.9649,-1.142351 -3.96475,-1.142561 -3.26956,11.308036 -1.62768,5.62942 3.90307,1.13095 c 2.14716,0.62035 3.94714,1.08153 4.0007,1.02234 0.0529,-0.0595 0,0 1.68886,-5.61783 z"
         style="fill:#ffffff;fill-opacity:1" />
    </g>
    <path
       style="opacity:0.2;fill:#000000;fill-opacity:1;fill-rule:evenodd;stroke:none;stroke-width:1px;stroke-linecap:butt;stroke-linejoin:miter;stroke-opacity:1"
       d="m 500.58442,554.39716 c -5.62317,1.91746 -11.24635,2.74015 -16.86952,-4.21738 l -10.12172,8.99708 -8.81012,-3.24854 c -1.28657,0.22425 4.44659,-5.31014 3.19906,-5.10297 -75.00598,12.45597 -87.20177,0.16349 -114.59951,-4.1463 l 0.99927,-4.09055 c 33.33694,15.54541 73.13474,11.70826 113.86929,5.06085 l 0.84347,3.93623 4.49854,-1.12464 14.05794,-9.5594 c 2.43671,5.99805 6.74781,8.6222 12.9333,7.87245 z"
       id="path4850"
       inkscape:connector-curvature="0"
       sodipodi:nodetypes="ccccscccccccc" />
    <path
       style="opacity:0.2;fill:#000000;fill-opacity:1;fill-rule:evenodd;stroke:none;stroke-width:1px;stroke-linecap:butt;stroke-linejoin:miter;stroke-opacity:1"
       d="m 437.32371,256.65007 -22.77386,3.37391 -1.12464,12.08982 c 9.3793,8.09249 16.02523,1.92857 22.4927,10e-6 z"
       id="path4852"
       inkscape:connector-curvature="0"
       sodipodi:nodetypes="ccccc" />
    <path
       style="opacity:0.2;fill:#000000;fill-opacity:1;fill-rule:evenodd;stroke:none;stroke-width:1px;stroke-linecap:butt;stroke-linejoin:miter;stroke-opacity:1"
       d="m 486.4539,896.86044 -0.5823,16.55526 c -4.02018,3.78088 -37.90673,38.66179 -50.56577,24.74882 4.07306,4.70799 -6.72728,31.49482 56.31711,-21.02554 l -1.98809,-20.67616 z"
       id="path4854"
       inkscape:connector-curvature="0"
       sodipodi:nodetypes="cccccc" />
    <path
       style="opacity:0.2;fill:#000000;fill-opacity:1;fill-rule:evenodd;stroke:none;stroke-width:1px;stroke-linecap:butt;stroke-linejoin:miter;stroke-opacity:1"
       d="m 494.38046,413.65372 c 0.77,-25.77304 1.99548,-62.33744 2.2109,-72.94165 2.2846,0.17055 -11.56738,-3.65975 -11.56738,-3.65975 0.63261,34.55688 -1.21632,65.22053 3.09266,81.6944 0.87788,3.35626 5.12645,-8.7331 6.26382,-5.093 z"
       id="path4858"
       inkscape:connector-curvature="0"
       sodipodi:nodetypes="ccssc" />
    <rect
       style="opacity:0.2;fill:#ff8d30;fill-opacity:1;stroke:none;stroke-width:4;stroke-linejoin:round;stroke-miterlimit:4;stroke-dasharray:none;stroke-opacity:1"
       id="rect4862"
       width="13.788582"
       height="11.313708"
       x="-497.57877"
       y="456.41504"
       transform="scale(-1,1)" />
    <path
       style="fill:#a30000;fill-opacity:1;fill-rule:evenodd;stroke:#000000;stroke-width:1px;stroke-linecap:butt;stroke-linejoin:miter;stroke-opacity:1"
       d="m 493.15938,453.05627 -9.8995,6.36396 0.35356,22.98097 10.25304,-7.77818 z"
       id="path4874"
       inkscape:connector-curvature="0" />
    <path
       style="fill:#395aff;fill-opacity:1;fill-rule:evenodd;stroke:#ffffff;stroke-width:1px;stroke-linecap:butt;stroke-linejoin:miter;stroke-opacity:1"
       d="m 515.43324,420.35258 -16.08668,11.66726 0.17678,29.16815 15.73312,-12.02081 z"
       id="path4876"
       inkscape:connector-curvature="0" />
    <path
       style="fill:#76dc2d;fill-opacity:1;fill-rule:evenodd;stroke:#ffffff;stroke-width:2;stroke-linecap:butt;stroke-linejoin:bevel;stroke-miterlimit:4;stroke-dasharray:none;stroke-opacity:1"
       d="m 489.44706,525.00438 -9.01561,-7.60139 0.53034,-20.5061 9.72271,-7.42462 3.71231,21.74353 c -1.65786,5.41272 1.18606,-3.5689 -4.94975,13.78858 z"
       id="path6350"
       inkscape:connector-curvature="0"
       sodipodi:nodetypes="cccccc" />
    <path
       style="fill:#fff60f;fill-opacity:1;fill-rule:evenodd;stroke:#000000;stroke-width:1.3543973px;stroke-linecap:butt;stroke-linejoin:miter;stroke-opacity:1"
       d="m 497.21391,439.89158 21.33176,36.23013 -5.75619,9.14218 -24.71775,-33.85993 z"
       id="path6352"
       inkscape:connector-curvature="0"
       sodipodi:nodetypes="ccccc" />
    <path
       style="fill:#3bc4c9;fill-opacity:1;fill-rule:evenodd;stroke:#000000;stroke-width:1px;stroke-linecap:butt;stroke-linejoin:miter;stroke-opacity:1"
       d="m 517.92608,507.95426 0,-20 -8.25,6.375 0,20.375 z"
       id="path6356"
       inkscape:connector-curvature="0"
       sodipodi:nodetypes="ccccc" />
    <path
       style="opacity:0.2;fill:#000000;fill-opacity:1;fill-rule:evenodd;stroke:none;stroke-width:1px;stroke-linecap:butt;stroke-linejoin:miter;stroke-opacity:1"
       d="m 390.6289,581.04259 -4.24265,-2.47487 c -34.79416,24.40126 -25.38495,178.99059 -21.2132,306.88434 l 7.07107,-0.7071 C 362.84832,769.59087 362.08533,602.16329 390.6289,581.04259 Z"
       id="path6358"
       inkscape:connector-curvature="0"
       sodipodi:nodetypes="ccccc" />
    <path
       style="fill:none;fill-rule:evenodd;stroke:#000000;stroke-width:3;stroke-linecap:round;stroke-linejoin:round;stroke-miterlimit:4;stroke-dasharray:none;stroke-opacity:1"
       d="m 183.62911,374.19403 c -14.56421,-0.78878 -30.33398,-31.08043 -24.2106,-34.06478 2.40005,-1.16971 4.54441,4.31973 4.54441,4.31973"
       id="path4219"
       inkscape:connector-curvature="0"
       sodipodi:nodetypes="csc" />
    <path
       style="display:inline;fill:none;fill-rule:evenodd;stroke:#000000;stroke-width:3;stroke-linecap:round;stroke-linejoin:round;stroke-miterlimit:4;stroke-dasharray:none;stroke-opacity:1"
       d="m 184.08529,374.00176 c -3.33618,3.42416 -28.37317,-28.08873 -18.71079,-29.91466 2.22559,-0.42058 7.26561,13.51238 7.26561,13.51238"
       id="path4219-0"
       inkscape:connector-curvature="0"
       sodipodi:nodetypes="csc" />
    <path
       style="fill:none;fill-rule:evenodd;stroke:#000000;stroke-width:2;stroke-linecap:butt;stroke-linejoin:miter;stroke-miterlimit:4;stroke-dasharray:none;stroke-opacity:1"
       d="m 178.03507,357.31947 c 5.49324,7.41144 12.38702,13.06287 17.32412,11.75566"
       id="path4236"
       inkscape:connector-curvature="0"
       sodipodi:nodetypes="cc" />
    <path
       style="fill:#f5eac9;fill-opacity:1;fill-rule:evenodd;stroke:#000000;stroke-width:2;stroke-linecap:butt;stroke-linejoin:miter;stroke-opacity:1;stroke-miterlimit:4;stroke-dasharray:none"
       d="m 122.00385,140.19692 c -8.94672,4.00825 -9.6631,16.44795 0.2019,19.96967 l 26.5,-3 c 15.44972,15.9795 4.88546,38.94482 -6.17264,64.64644 -0.15961,0.37095 7.59953,2.06228 7.4398,2.43436 -0.23167,0.53968 -8.38225,-0.23928 -8.61381,0.3027 -7.94087,18.58654 -15.67108,38.50589 -13.74807,58.1857 0.0609,0.62324 7.90965,1.06946 7.99021,1.69217 0.0676,0.52277 -7.63587,1.22211 -7.55399,1.74444 1.18781,7.57739 3.89341,15.10552 8.6585,22.49419 36.62815,6.7051 56.5026,1.38128 84.0026,2.38128 19.20509,-4.85708 15.11536,-24.81327 5.9974,-25.88128 -10.28208,-1.20436 -10.50616,13.87603 -8.25,13.5 l -10.29366,0.32767 c -3.21306,-8.19247 -4.16394,-17.35165 -3.62234,-27.05205 0.0286,-0.51165 -3.81372,-1.0248 -3.77696,-1.53941 0.0387,-0.54098 3.95675,-1.08357 4.00419,-1.62767 3.06073,-35.10427 24.15709,-76.54608 28.04733,-104.84362 0.11733,-0.85343 -8.656,-1.4449 -8.57094,-2.27389 0.0852,-0.83003 9.02867,-1.89754 9.07955,-2.702 1.0135,-16.02483 -4.96862,-26.868 -25.61717,-28.28903 -30.68382,-0.35076 -57.62975,5.5283 -85.7019,9.53033 z"
       id="path4249"
       inkscape:connector-curvature="0"
       sodipodi:nodetypes="cccssssssccsccsssssscc" />
    <path
       style="fill:none;fill-rule:evenodd;stroke:#000000;stroke-width:2;stroke-linecap:butt;stroke-linejoin:miter;stroke-opacity:1;stroke-miterlimit:4;stroke-dasharray:none"
       d="m 204.63123,283.53894 c 1.34835,8.67989 4.48621,29.07878 17.07779,27.22361"
       id="path4251"
       inkscape:connector-curvature="0"
       sodipodi:nodetypes="cc" />
    <path
       style="fill:none;fill-rule:evenodd;stroke:#000000;stroke-width:2;stroke-linecap:round;stroke-linejoin:miter;stroke-opacity:1;stroke-miterlimit:4;stroke-dasharray:none"
       d="m 226.20575,285.04159 c -7.09094,0.278 -17.62346,0.44872 -20.5625,0.875"
       id="path4253"
       inkscape:connector-curvature="0"
       sodipodi:nodetypes="cc" />
    <path
       style="fill:none;fill-rule:evenodd;stroke:#000000;stroke-width:2;stroke-linecap:butt;stroke-linejoin:miter;stroke-opacity:1;stroke-miterlimit:4;stroke-dasharray:none"
       d="m 122.49441,159.94614 84.41087,-8.92723 c 8.66328,-1.73572 7.95298,-5.87493 7.68979,-9.89949 -5.74945,0.57516 -12.30014,1.87496 -17.23573,1.06066"
       id="path4255"
       inkscape:connector-curvature="0"
       sodipodi:nodetypes="cccc" />
    <path
       style="fill:none;fill-rule:evenodd;stroke:#000000;stroke-width:2;stroke-linecap:butt;stroke-linejoin:miter;stroke-opacity:1;stroke-miterlimit:4;stroke-dasharray:none"
       d="m 207.34722,130.6012 c -30.5668,5.48676 10.28973,32.46444 6.89429,10.42983"
       id="path4257"
       inkscape:connector-curvature="0"
       sodipodi:nodetypes="cc" />
    <text
       xml:space="preserve"
       style="font-style:normal;font-variant:normal;font-weight:normal;font-stretch:normal;font-size:28.94686317px;line-height:125%;font-family:'Euphemia UCAS';-inkscape-font-specification:'Euphemia UCAS';letter-spacing:0px;word-spacing:0px;fill:#000000;fill-opacity:1;stroke:none;stroke-width:10.80000019;stroke-linecap:butt;stroke-linejoin:miter;stroke-miterlimit:4;stroke-dasharray:none;stroke-opacity:1"
       x="232.67267"
       y="203.07661"
       id="text4431"
       sodipodi:linespacing="125%"
       transform="matrix(1.0054379,-0.09641508,-0.36230657,1.0293344,0,0)"><tspan
         sodipodi:role="line"
         id="tspan4433"
         x="232.67267"
         y="203.07661"
         style="font-style:normal;font-variant:normal;font-weight:bold;font-stretch:normal;font-size:7.5px;font-family:Courier;-inkscape-font-specification:'Courier Bold';stroke-width:10.80000019;stroke-miterlimit:4;stroke-dasharray:none">for(var i = 0; </tspan><tspan
         sodipodi:role="line"
         x="232.67267"
         y="212.45161"
         style="font-style:normal;font-variant:normal;font-weight:bold;font-stretch:normal;font-size:7.5px;font-family:Courier;-inkscape-font-specification:'Courier Bold';stroke-width:10.80000019;stroke-miterlimit:4;stroke-dasharray:none"
         id="tspan4435"
         dx="0 0 0 0 0 0 0 0 -0.46662241">  method();</tspan><tspan
         sodipodi:role="line"
         x="232.67267"
         y="221.82661"
         style="font-style:normal;font-variant:normal;font-weight:bold;font-stretch:normal;font-size:7.5px;font-family:Courier;-inkscape-font-specification:'Courier Bold';stroke-width:10.80000019;stroke-miterlimit:4;stroke-dasharray:none"
         id="tspan4437">  foo = true;</tspan><tspan
         sodipodi:role="line"
         x="232.67267"
         y="231.20161"
         style="font-style:normal;font-variant:normal;font-weight:bold;font-stretch:normal;font-size:7.5px;font-family:Courier;-inkscape-font-specification:'Courier Bold';stroke-width:10.80000019;stroke-miterlimit:4;stroke-dasharray:none"
         id="tspan4439">}</tspan><tspan
         sodipodi:role="line"
         x="232.67267"
         y="240.57661"
         style="font-style:normal;font-variant:normal;font-weight:bold;font-stretch:normal;font-size:7.5px;font-family:Courier;-inkscape-font-specification:'Courier Bold';stroke-width:10.80000019;stroke-miterlimit:4;stroke-dasharray:none"
         id="tspan4481" /><tspan
         sodipodi:role="line"
         x="232.67267"
         y="249.95161"
         style="font-style:normal;font-variant:normal;font-weight:bold;font-stretch:normal;font-size:7.5px;font-family:Courier;-inkscape-font-specification:'Courier Bold';stroke-width:10.80000019;stroke-miterlimit:4;stroke-dasharray:none"
         id="tspan4447" /><tspan
         sodipodi:role="line"
         x="232.67267"
         y="259.3266"
         style="font-style:normal;font-variant:normal;font-weight:bold;font-stretch:normal;font-size:7.5px;font-family:Courier;-inkscape-font-specification:'Courier Bold';stroke-width:10.80000019;stroke-miterlimit:4;stroke-dasharray:none"
         id="tspan4441">if(statement){</tspan><tspan
         sodipodi:role="line"
         x="232.67267"
         y="268.7016"
         style="font-style:normal;font-variant:normal;font-weight:bold;font-stretch:normal;font-size:7.5px;font-family:Courier;-inkscape-font-specification:'Courier Bold';stroke-width:10.80000019;stroke-miterlimit:4;stroke-dasharray:none"
         id="tspan4443">  assignment();</tspan><tspan
         sodipodi:role="line"
         x="232.67267"
         y="278.0766"
         style="font-style:normal;font-variant:normal;font-weight:bold;font-stretch:normal;font-size:7.5px;font-family:Courier;-inkscape-font-specification:'Courier Bold';stroke-width:10.80000019;stroke-miterlimit:4;stroke-dasharray:none"
         id="tspan4445">}</tspan></text>
    <text
       xml:space="preserve"
       style="font-style:normal;font-weight:normal;font-size:40px;line-height:125%;font-family:sans-serif;letter-spacing:0px;word-spacing:0px;fill:#000000;fill-opacity:1;stroke:none;stroke-width:1px;stroke-linecap:butt;stroke-linejoin:miter;stroke-opacity:1"
       x="118.83329"
       y="198.1395"
       id="text4485"
       sodipodi:linespacing="125%"><tspan
         sodipodi:role="line"
         id="tspan4487"
         x="118.83329"
         y="198.1395"></tspan></text>
    <path
       style="opacity:1;fill:#ffb8f6;fill-opacity:0.1875;fill-rule:evenodd;stroke:#ff00ca;stroke-width:3;stroke-linecap:round;stroke-linejoin:round;stroke-miterlimit:4;stroke-dasharray:none;stroke-dashoffset:0;stroke-opacity:0.1882353"
       id="path4489"
       sodipodi:type="arc"
       sodipodi:cx="184.40727"
       sodipodi:cy="218.99565"
       sodipodi:rx="102.94498"
       sodipodi:ry="118.12277"
       sodipodi:start="0"
       sodipodi:end="6.2770852"
       d="M 287.35225,218.99565 A 102.94498,118.12277 0 0 1 184.56427,337.11829 102.94498,118.12277 0 0 1 81.462774,219.35593 102.94498,118.12277 0 0 1 183.93629,100.87412 102.94498,118.12277 0 0 1 287.35033,218.27509"
       sodipodi:open="true" />
  </g>
  <g
     inkscape:label="Lines"
     inkscape:groupmode="layer"
     id="layer1"
     style="display:inline"
     transform="translate(-57.70575,-59.214916)">
    <ellipse
       style="opacity:1;fill:#000000;fill-opacity:1;fill-rule:evenodd;stroke:none;stroke-width:1px;stroke-linecap:butt;stroke-linejoin:miter;stroke-opacity:1"
       id="path3724"
       cx="-430.77222"
       cy="194.19864"
       rx="4.9076719"
       ry="11.65572"
       transform="scale(-1,1)" />
    <ellipse
       style="opacity:1;fill:#000000;fill-opacity:1;fill-rule:evenodd;stroke:none;stroke-width:1px;stroke-linecap:butt;stroke-linejoin:miter;stroke-opacity:1"
       id="path3724-6"
       cx="-380.4696"
       cy="195.12289"
       rx="4.9665909"
       ry="11.795652"
       transform="scale(-1,1)" />
    <path
       style="fill:none;fill-rule:evenodd;stroke:#000000;stroke-width:3;stroke-linecap:butt;stroke-linejoin:miter;stroke-miterlimit:4.30000019;stroke-dasharray:none;stroke-opacity:1"
       d="m 485.44241,202.50304 c -2.32204,0.32243 -5.12465,3.14159 -7.38778,-1.19436 1.71986,-8.1387 3.11075,-16.67218 1.51522,-28.78935 -20.02058,-11.85345 -27.62118,-21.04245 -33.08249,-29.54696 -31.76089,-4.15446 -59.61272,-2.27405 -77.41557,-1.11116 -15.99563,23.32234 -19.38229,20.65762 -19.38229,20.65762 0,0 -3.61541,30.33537 0.58083,44.59823 3.89609,13.24264 11.31099,26.33266 21.97081,35.10279 12.73674,10.47886 29.72785,18.14844 46.21449,17.67768 18.26646,-0.52158 36.88686,-9.75133 50.00255,-22.47589 9.2898,-9.01276 15.87135,-21.46844 16.98423,-34.9186 z"
       id="path4541"
       inkscape:connector-curvature="0"
       sodipodi:nodetypes="ccccccaaaac" />
    <path
       style="fill:none;fill-rule:evenodd;stroke:#000000;stroke-width:3;stroke-linecap:butt;stroke-linejoin:miter;stroke-miterlimit:4;stroke-dasharray:none;stroke-opacity:1"
       d="m 422.74877,230.35057 c -10.35406,5.751 -23.99113,3.64068 -34.34519,0"
       id="path4591"
       inkscape:connector-curvature="0"
       sodipodi:nodetypes="cc" />
    <path
       style="fill:none;fill-rule:evenodd;stroke:#000000;stroke-width:3;stroke-linecap:butt;stroke-linejoin:miter;stroke-miterlimit:8.39999962;stroke-dasharray:none;stroke-opacity:1"
       d="m 485.31766,202.68227 c 0,0 0.86861,-4.10141 1.61223,-6.05226 0.51308,-1.34605 1.94949,-3.85685 1.94949,-3.85685 0.66202,-17.69349 -4.00146,-42.79837 -18.14836,-61.165 -3.64048,-5.04812 -6.2913,-11.36865 -7.57614,-19.44544 -1.50454,6.61664 -4.75881,8.85899 -7.1503,13.25825 l 5.50879,-8.9651 c -10.46122,2.21984 -12.33673,-3.2103 -16.19999,-17.449291 -3.12155,5.541571 -5.15682,6.780621 -8.42247,9.368071 -6.23877,-3.64687 -7.83368,-8.982418 -10.6066,-13.889597 -0.19636,5.543397 -1.82416,10.450587 -5.05076,14.647207 -5.33271,-3.54725 -10.51825,-7.17627 -12.87945,-12.374364 -1.41813,2.34794 -4.61029,10.701474 -9.51505,12.637424 -2.15597,0.85098 -9.00254,-8.36974 -9.00254,-8.36974 0,0 0.51514,9.65337 -1.84627,11.62372 -12.50201,10.43159 -23.10068,21.20783 -30.91153,32.84338 -3.57762,5.32946 -10.07029,18.17938 -5.83611,16.6726"
       id="path4593"
       inkscape:connector-curvature="0"
       sodipodi:nodetypes="caccccccccccscssc" />
    <path
       style="fill:none;fill-rule:evenodd;stroke:#000000;stroke-width:3;stroke-linecap:butt;stroke-linejoin:miter;stroke-miterlimit:5.98000002;stroke-dasharray:none;stroke-opacity:1"
       d="m 381.61236,136.47553 c 1.52112,-4.92543 2.62156,-16.109 0.6605,-22.03109 4.73588,4.67097 9.56986,8.11953 13.5063,9.50546"
       id="path4605"
       inkscape:connector-curvature="0"
       sodipodi:nodetypes="ccc" />
    <path
       style="fill:none;fill-rule:evenodd;stroke:#000000;stroke-width:3;stroke-linecap:butt;stroke-linejoin:miter;stroke-miterlimit:5.98000002;stroke-dasharray:none;stroke-opacity:1"
       d="m 446.11051,131.85162 c -6.57207,-4.40303 -8.48241,-9.52743 -11.25001,-15.35714 -0.73066,7.56992 -5.8946,11.66144 -8.03571,15"
       id="path4607"
       inkscape:connector-curvature="0"
       sodipodi:nodetypes="ccc" />
    <path
       style="fill:none;fill-rule:evenodd;stroke:#000000;stroke-width:3;stroke-linecap:butt;stroke-linejoin:miter;stroke-miterlimit:5.98000002;stroke-dasharray:none;stroke-opacity:1"
       d="m 420.5742,132.26606 c -5.7796,-5.28325 -7.81074,-9.51718 -10.92815,-19.17521 -0.632,7.76903 -5.73549,15.3952 -9.07311,19.97311"
       id="path4609"
       inkscape:connector-curvature="0"
       sodipodi:nodetypes="ccc" />
    <g
       id="g6418">
      <path
         sodipodi:nodetypes="cc"
         inkscape:connector-curvature="0"
         id="path4611"
         d="m 488.87994,192.89805 c 12.86316,-5.80821 3.14705,18.25096 -4.5317,17.85209"
         style="fill:none;fill-opacity:1;fill-rule:evenodd;stroke:#000000;stroke-width:3;stroke-linecap:butt;stroke-linejoin:miter;stroke-miterlimit:4;stroke-dasharray:none;stroke-opacity:1" />
    </g>
    <path
       style="fill:none;fill-rule:evenodd;stroke:#000000;stroke-width:3;stroke-linecap:butt;stroke-linejoin:round;stroke-miterlimit:4;stroke-dasharray:none;stroke-opacity:1"
       d="m 493.65412,415.40306 3.5301,-75.28324 -6.65746,-1.98801 c 17.72094,2.56816 41.25904,26.37875 47.6162,34.92783 4.04019,-9.93799 3.48284,-13.91841 12.23374,-30.79519 -12.16364,-19.38932 -29.33288,-39.981 -49.9421,-46.65182 -31.53779,-7.4672 -61.35556,-7.23495 -61.35556,-7.23495 -14.8893,10.00696 -25.81938,8.13622 -32.22427,-7.31009 0,0 -24.27874,-6.83419 -36.84424,-6.17547 -36.22149,1.89883 -44.90293,46.40469 -42.24177,52.70948 l 25.2114,16.6026 c 0.41886,-9.15489 -0.49627,-17.08809 -0.81277,-25.06697 l 9.3053,146.00519 c 1.21628,32.58441 0.91048,56.43692 -7.46259,77.68735 39.62953,18.35139 71.25412,11.53659 112.29614,5.87562"
       id="path4613"
       inkscape:connector-curvature="0"
       sodipodi:nodetypes="ccccccccscccccc" />
    <path
       style="fill:none;fill-rule:evenodd;stroke:#000000;stroke-width:3;stroke-linecap:butt;stroke-linejoin:miter;stroke-miterlimit:4;stroke-dasharray:none;stroke-opacity:1"
       d="m 437.46469,256.94927 c -3.57233,11.10137 -2.79004,20.46561 0.78481,31.56698"
       id="path4615"
       inkscape:connector-curvature="0"
       sodipodi:nodetypes="cc" />
    <path
       style="fill:none;fill-rule:evenodd;stroke:#000000;stroke-width:3;stroke-linecap:butt;stroke-linejoin:miter;stroke-miterlimit:4;stroke-dasharray:none;stroke-opacity:1"
       d="m 414.61432,258.97227 c 0.91297,10.6858 -2.90002,17.59082 -9.13177,22.56085"
       id="path4617"
       inkscape:connector-curvature="0"
       sodipodi:nodetypes="cc" />
    <path
       style="fill:none;fill-rule:evenodd;stroke:#000000;stroke-width:3;stroke-linecap:butt;stroke-linejoin:miter;stroke-miterlimit:4;stroke-dasharray:none;stroke-opacity:1"
       d="m 537.86034,372.71026 c 61.08431,83.71495 22.69547,127.31135 -23.31548,147.88758 -2.96026,1.32384 -12.53555,-10.66709 -13.85432,-9.16203 -2.00385,2.28692 5.00568,11.23613 6.50322,12.94406 1.49755,1.70792 -12.02032,9.89191 -12.02032,9.89191 l -7.2168,6.45714 c 6.73922,13.30248 17.36225,8.00358 28.86721,-1.51932 118.89782,-55.46046 67.97543,-138.8748 33.51303,-197.02816"
       id="path4619"
       inkscape:connector-curvature="0"
       sodipodi:nodetypes="csszcccc" />
    <path
       style="fill:none;fill-rule:evenodd;stroke:#000000;stroke-width:3;stroke-linecap:butt;stroke-linejoin:miter;stroke-miterlimit:4;stroke-dasharray:none;stroke-opacity:1"
       d="m 295.62979,285.93871 -25.86186,-18.5611 c -5.94207,125.85503 -43.02029,90.69749 -118.44099,43.241 -1.92114,-1.20882 -13.08442,-22.21326 -15.05876,-21.90589 -3.85117,0.59955 5.02786,16.50549 0.89441,17.2774 -13.99138,2.61285 -21.70964,-16.95962 -22.39719,-16.24094 -1.77691,1.85739 -0.80051,14.18384 9.9087,23.98647 3.85809,3.53149 15.00147,2.54589 19.10316,6.45503 72.31435,68.91961 148.46358,76.52908 151.85253,-34.25197 z"
       id="path4621"
       inkscape:connector-curvature="0"
       sodipodi:nodetypes="ccssssssc"
       transform="translate(57.70575,59.214916)" />
    <path
       style="fill:none;fill-rule:evenodd;stroke:#000000;stroke-width:2;stroke-linecap:butt;stroke-linejoin:bevel;stroke-miterlimit:4;stroke-dasharray:none;stroke-opacity:1"
       d="m 521.50978,402.39483 -0.53716,110.11844 -9.13466,7.475 -11.72327,-8.49781 7.37544,13.49668 -33.2507,26.20187 -0.53716,-117.63872 z"
       id="path4625"
       inkscape:connector-curvature="0"
       sodipodi:nodetypes="cccccccc" />
    <path
       style="fill:none;fill-rule:evenodd;stroke:#000000;stroke-width:3;stroke-linecap:butt;stroke-linejoin:miter;stroke-miterlimit:4;stroke-dasharray:none;stroke-opacity:1"
       d="m 521.50978,401.3205 -5.6156,0.14476 -47.56354,29.93638 1.07432,119.78737 4.83447,0"
       id="path4627"
       inkscape:connector-curvature="0"
       sodipodi:nodetypes="ccccc" />
    <ellipse
       style="opacity:1;fill:#ffffff;fill-opacity:1;stroke:#000000;stroke-width:2;stroke-miterlimit:4;stroke-dasharray:none;stroke-opacity:1"
       id="path4629"
       cx="-500.81076"
       cy="489.81091"
       rx="3.8194559"
       ry="16.914734"
       transform="scale(-1,1)" />
    <path
       style="fill:none;fill-rule:evenodd;stroke:#000000;stroke-width:3;stroke-linecap:butt;stroke-linejoin:miter;stroke-miterlimit:4;stroke-dasharray:none;stroke-opacity:1"
       d="m 500.26512,548.19402 c 0.66226,116.80149 -9.27582,333.92958 -9.27582,333.92958 l -21.82546,1.63691 c 0,0 10.6186,-189.15864 -16.3691,-300.64575 -37.81189,6.29321 -51.71563,3.06409 -63.29384,-1.09127 -37.1897,37.65289 -18.55164,304.4652 -18.55164,304.4652 l -24.00801,-0.54564 c 0,0 -14.54075,-232.0152 7.09327,-343.2054"
       id="path4631"
       inkscape:connector-curvature="0"
       sodipodi:nodetypes="cccccccc" />
    <path
       style="fill:none;fill-rule:evenodd;stroke:#000000;stroke-width:2.42917347;stroke-linecap:butt;stroke-linejoin:miter;stroke-miterlimit:4;stroke-dasharray:none;stroke-opacity:1"
       d="m 443.09837,169.16052 c -8.6218,-2.71364 -13.97405,-2.78566 -18.03569,-0.42942"
       id="path4633"
       inkscape:connector-curvature="0"
       sodipodi:nodetypes="cc" />
    <path
       style="fill:none;fill-rule:evenodd;stroke:#000000;stroke-width:2.45833707;stroke-linecap:butt;stroke-linejoin:miter;stroke-miterlimit:4;stroke-dasharray:none;stroke-opacity:1"
       d="m 386.24366,167.64072 c -8.36557,-1.44201 -13.93592,-0.59299 -18.18443,1.63049"
       id="path4633-7"
       inkscape:connector-curvature="0"
       sodipodi:nodetypes="cc" />
    <path
       style="fill:none;fill-rule:evenodd;stroke:#000000;stroke-width:3;stroke-linecap:butt;stroke-linejoin:miter;stroke-miterlimit:4;stroke-dasharray:none;stroke-opacity:1"
       d="m 369.85965,896.72988 -21.97493,1.34541 -1.34541,13.45403 c -33.77453,13.82379 -37.66358,11.35547 -35.83431,23.32035 2.22806,14.57324 34.72078,-2.99261 59.65057,-11.25915 z"
       id="path4678"
       inkscape:connector-curvature="0"
       sodipodi:nodetypes="cccscc" />
    <path
       style="display:inline;fill:none;fill-rule:evenodd;stroke:#000000;stroke-width:3;stroke-linecap:butt;stroke-linejoin:miter;stroke-miterlimit:4;stroke-dasharray:none;stroke-opacity:1"
       d="m 490.01782,896.1179 -20.64503,0.14447 -4.43201,13.09549 c -25.66783,26.44947 -34.21292,25.30767 -27.21193,35.20858 8.52721,12.05931 33.76844,-9.2607 53.56938,-27.05685 z"
       id="path4678-2"
       inkscape:connector-curvature="0"
       sodipodi:nodetypes="cccscc" />
    <path
       style="fill:none;fill-rule:evenodd;stroke:#000000;stroke-width:2;stroke-linecap:butt;stroke-linejoin:miter;stroke-miterlimit:4;stroke-dasharray:none;stroke-opacity:1"
       d="m 487.70159,895.3845 0.35355,-13.08148"
       id="path4698"
       inkscape:connector-curvature="0" />
    <path
       style="display:inline;fill:none;fill-rule:evenodd;stroke:#000000;stroke-width:2;stroke-linecap:butt;stroke-linejoin:miter;stroke-miterlimit:4;stroke-dasharray:none;stroke-opacity:1"
       d="m 472.14524,896.62194 0.35355,-13.08148"
       id="path4698-8"
       inkscape:connector-curvature="0" />
    <path
       style="display:inline;fill:none;fill-rule:evenodd;stroke:#000000;stroke-width:1.85477698;stroke-linecap:butt;stroke-linejoin:miter;stroke-miterlimit:4;stroke-dasharray:none;stroke-opacity:1"
       d="m 367.31457,896.79005 0.35771,-11.11961"
       id="path4698-8-3"
       inkscape:connector-curvature="0" />
    <path
       style="display:inline;fill:none;fill-rule:evenodd;stroke:#000000;stroke-width:1.9356426;stroke-linecap:butt;stroke-linejoin:miter;stroke-miterlimit:4;stroke-dasharray:none;stroke-opacity:1"
       d="m 350.34517,897.8553 0.35539,-12.18944"
       id="path4698-8-7"
       inkscape:connector-curvature="0" />
  </g>
  <path
     style="opacity:0.2;fill:#000000;fill-opacity:1;fill-rule:evenodd;stroke:none;stroke-width:1px;stroke-linecap:butt;stroke-linejoin:miter;stroke-opacity:1"
     d="m 313.01722,837.19991 0.70711,27.04683 c -26.54066,8.08225 -66.75111,32.11483 -58.51309,2.65165 -3.83556,14.40229 26.71102,5.37491 53.56334,-7.77817 l 1.06066,-21.56676 z"
     id="path4856"
     inkscape:connector-curvature="0"
     sodipodi:nodetypes="cccccc" />
</svg>
